<svg width="840" height="250" viewBox="0 0 840 250" xmlns="http://www.w3.org/2000/svg">
  <!-- Circle Symbol -->
  <circle cx="125" cy="125" r="125" fill="#FF2A1D"/>
  <path fill="#FFFFFF" d="M125 50C166.875 50 200.625 83.75 200.625 125.625C200.625 167.5 166.875 201.25 125 201.25M125 50V80C150 80 170 100 170 125C170 150 150 170 125 170M200.625 125.625H185C185 156.25 156.25 185 125 185V201.25" stroke-width="0"/>
  <path fill="#FFFFFF" d="M146.25 95C156.25 95 166.25 100 171.25 110L171.25 110.625C171.25 110.625 146.25 112.5 146.25 133.75C146.25 155 171.25 156.875 171.25 156.875L171.25 157.5C166.25 167.5 156.25 172.5 146.25 172.5" stroke-width="0"/>

  <!-- Text "SITECORE" -->
  <path d="M321.25 145c0 10-7.5 20-22.5 20c-15 0-22.5-10-22.5-20c0-20 30-15 30-30c0-5-5-10-10-10c-7.5 0-10 5-10 10l-17.5-5c2.5-10 10-17.5 27.5-17.5c15 0 22.5 10 22.5 20c0 20-30 15-30 30c0 5 5 10 10 10c5 0 10-5 10-10L321.25 145z" fill="#000000"/>
  <path d="M358.75 97.5h20v65h-20V97.5z" fill="#000000"/>
  <path d="M450 97.5v65h-20v-25h-15v25h-20v-65h20v25h15v-25H450z" fill="#000000"/>
  <path d="M515 97.5v15h-20v50h-20v-50h-20v-15H515z" fill="#000000"/>
  <path d="M565 97.5c20 0 35 15 35 32.5c0 17.5-15 32.5-35 32.5c-20 0-35-15-35-32.5C530 112.5 545 97.5 565 97.5zM565 147.5c10 0 15-7.5 15-17.5c0-10-5-17.5-15-17.5c-10 0-15 7.5-15 17.5C550 140 555 147.5 565 147.5z" fill="#000000"/>
  <path d="M655 97.5c20 0 35 15 35 32.5c0 17.5-15 32.5-35 32.5c-20 0-35-15-35-32.5C620 112.5 635 97.5 655 97.5zM655 147.5c10 0 15-7.5 15-17.5c0-10-5-17.5-15-17.5c-10 0-15 7.5-15 17.5C640 140 645 147.5 655 147.5z" fill="#000000"/>
  <path d="M705 97.5h20l20 30v-30h20v65h-20l-20-30v30h-20V97.5z" fill="#000000"/>
  <path d="M815 97.5v15h-30v10h25v15h-25v10h30v15h-50v-65H815z" fill="#000000"/>

  <!-- Registered Trademark -->
  <circle cx="820" cy="90" r="10" stroke="#000000" stroke-width="2" fill="none"/>
  <path d="M815 90h10M820 85v10" stroke="#000000" stroke-width="2"/>
</svg>
