<svg width="32" height="32" viewBox="0 0 32 32" fill="none" xmlns="http://www.w3.org/2000/svg">
  <circle cx="16" cy="16" r="16" fill="#FF2A1D"/>
  <path fill="#FFFFFF" d="M16 6.4C22.15 6.4 27.2 11.45 27.2 17.6H24.32C24.32 13.6 20.64 10.24 16 10.24V6.4Z" stroke-width="0"/>
  <path fill="#FFFFFF" d="M16 10.24C19.2 10.24 21.76 12.8 21.76 16C21.76 19.2 19.2 21.76 16 21.76V25.6C21.76 25.6 26.56 21.12 26.56 16H22.4" stroke-width="0"/>
  <path fill="#FFFFFF" d="M18.88 12.16C20 12.16 21.12 12.8 21.76 14.08V14.72C21.76 14.72 18.88 14.72 18.88 17.28C18.88 19.84 21.76 19.84 21.76 19.84V20.48C21.12 21.76 20 22.4 18.88 22.4" stroke-width="0"/>
</svg>
